<svg xmlns="http://www.w3.org/2000/svg" viewBox="0 0 64 64">
  <!-- White version with black outline for visibility on both light and dark backgrounds -->
  
  <!-- Outer frame with thick stroke for visibility -->
  <rect x="4" y="4" width="56" height="56" fill="none" stroke="#FFFFFF" stroke-width="6" rx="8"/>
  
  <!-- Corner dots (solid circles) -->
  <circle cx="12" cy="12" r="6" fill="#FFFFFF"/>
  <circle cx="52" cy="12" r="6" fill="#FFFFFF"/>
  <circle cx="12" cy="52" r="6" fill="#FFFFFF"/>
  <circle cx="52" cy="52" r="6" fill="#FFFFFF"/>
  
  <!-- Number 4 (bold and clear) -->
  <path d="M 38 20 L 38 32 L 48 32 L 48 38 L 38 38 L 38 48 L 30 48 L 30 38 L 18 38 L 18 30 L 30 20 Z M 30 26 L 24 32 L 30 32 Z" fill="#FFFFFF"/>
  
  <!-- Add subtle shadow/outline to number 4 for better contrast -->
  <path d="M 38 20 L 38 32 L 48 32 L 48 38 L 38 38 L 38 48 L 30 48 L 30 38 L 18 38 L 18 30 L 30 20 Z M 30 26 L 24 32 L 30 32 Z" fill="none" stroke="#000000" stroke-width="1" opacity="0.3"/>
</svg>