<svg xmlns="http://www.w3.org/2000/svg" viewBox="0 0 64 64">
  <!-- Universal design: White icon with black outline for maximum visibility on any background -->
  
  <!-- Black shadow/outline layer -->
  <g opacity="0.8">
    <rect x="5" y="5" width="54" height="54" fill="none" stroke="#000000" stroke-width="8" rx="7"/>
    <circle cx="12" cy="12" r="7" fill="#000000"/>
    <circle cx="52" cy="12" r="7" fill="#000000"/>
    <circle cx="12" cy="52" r="7" fill="#000000"/>
    <circle cx="52" cy="52" r="7" fill="#000000"/>
    <path d="M 38 20 L 38 32 L 48 32 L 48 38 L 38 38 L 38 48 L 30 48 L 30 38 L 18 38 L 18 30 L 30 20 Z M 30 26 L 24 32 L 30 32 Z" fill="#000000"/>
  </g>
  
  <!-- White main layer -->
  <rect x="6" y="6" width="52" height="52" fill="none" stroke="#FFFFFF" stroke-width="6" rx="6"/>
  <circle cx="13" cy="13" r="5.5" fill="#FFFFFF"/>
  <circle cx="51" cy="13" r="5.5" fill="#FFFFFF"/>
  <circle cx="13" cy="51" r="5.5" fill="#FFFFFF"/>
  <circle cx="51" cy="51" r="5.5" fill="#FFFFFF"/>
  <path d="M 38 21 L 38 32 L 47 32 L 47 37 L 38 37 L 38 47 L 31 47 L 31 37 L 19 37 L 19 31 L 31 21 Z M 31 27 L 25 33 L 31 33 Z" fill="#FFFFFF"/>
</svg>