<svg width="124" height="33" viewBox="0 0 124 33" fill="none" xmlns="http://www.w3.org/2000/svg">
<path d="M8.67172 8.0453L5.62087 25.0396M28.9293 4.64643L11.8446 4.64643M25.5124 28.4385L8.42765 28.4385M7.74426 8.0453H9.11104C10.0679 8.0453 10.5463 8.0453 10.9118 7.86007C11.2332 7.69714 11.4946 7.43716 11.6584 7.11739C11.8446 6.75386 11.8446 6.27798 11.8446 5.3262V3.96665C11.8446 3.01488 11.8446 2.539 11.6584 2.17547C11.4946 1.8557 11.2332 1.59572 10.9118 1.43279C10.5463 1.24756 10.0679 1.24756 9.11104 1.24756H7.74426C6.78742 1.24756 6.30901 1.24756 5.94354 1.43279C5.62207 1.59572 5.36071 1.8557 5.19691 2.17547C5.0107 2.539 5.0107 3.01488 5.0107 3.96665V5.3262C5.0107 6.27798 5.0107 6.75386 5.19691 7.11739C5.36071 7.43716 5.62207 7.69714 5.94354 7.86007C6.30901 8.0453 6.78742 8.0453 7.74426 8.0453ZM4.32731 31.8374H5.69409C6.65092 31.8374 7.12934 31.8374 7.4948 31.6522C7.81627 31.4892 8.07764 31.2293 8.24144 30.9095C8.42765 30.546 8.42765 30.0701 8.42765 29.1183V27.7587C8.42765 26.807 8.42765 26.3311 8.24144 25.9676C8.07764 25.6478 7.81627 25.3878 7.4948 25.2249C7.12934 25.0396 6.65092 25.0396 5.69409 25.0396H4.32731C3.37047 25.0396 2.89206 25.0396 2.52659 25.2249C2.20512 25.3878 1.94376 25.6478 1.77996 25.9676C1.59375 26.3311 1.59375 26.807 1.59375 27.7587V29.1183C1.59375 30.0701 1.59375 30.546 1.77996 30.9095C1.94376 31.2293 2.20512 31.4892 2.52659 31.6522C2.89206 31.8374 3.37047 31.8374 4.32731 31.8374ZM31.6629 8.0453H33.0297C33.9865 8.0453 34.4649 8.0453 34.8304 7.86007C35.1519 7.69714 35.4132 7.43716 35.577 7.11739C35.7632 6.75386 35.7632 6.27798 35.7632 5.3262V3.96665C35.7632 3.01488 35.7632 2.539 35.577 2.17547C35.4132 1.8557 35.1519 1.59572 34.8304 1.43279C34.4649 1.24756 33.9865 1.24756 33.0297 1.24756H31.6629C30.7061 1.24756 30.2276 1.24756 29.8622 1.43279C29.5407 1.59572 29.2794 1.8557 29.1156 2.17547C28.9293 2.539 28.9293 3.01488 28.9293 3.96665V5.3262C28.9293 6.27798 28.9293 6.75386 29.1156 7.11739C29.2794 7.43716 29.5407 7.69714 29.8622 7.86007C30.2276 8.0453 30.7061 8.0453 31.6629 8.0453ZM28.246 31.8374H29.6127C30.5696 31.8374 31.048 31.8374 31.4134 31.6522C31.7349 31.4892 31.9963 31.2293 32.1601 30.9095C32.3463 30.546 32.3463 30.0701 32.3463 29.1183V27.7587C32.3463 26.807 32.3463 26.3311 32.1601 25.9676C31.9963 25.6478 31.7349 25.3878 31.4134 25.2249C31.048 25.0396 30.5696 25.0396 29.6127 25.0396H28.246C27.2891 25.0396 26.8107 25.0396 26.4452 25.2249C26.1238 25.3878 25.8624 25.6478 25.6986 25.9676C25.5124 26.3311 25.5124 26.807 25.5124 27.7587V29.1183C25.5124 30.0701 25.5124 30.546 25.6986 30.9095C25.8624 31.2293 26.1238 31.4892 26.4452 31.6522C26.8107 31.8374 27.2891 31.8374 28.246 31.8374Z" stroke="white" stroke-width="1.95254" stroke-linecap="round" stroke-linejoin="round"/>
<path d="M13.7319 19.8158V18.4165L19.199 10.5738H21.4444V18.205H22.9576V19.8158H21.4444V22.2891H19.622V19.8158H13.7319ZM19.7034 12.4613L15.8634 18.205H19.7034V12.4613ZM28.3471 16.6104C28.3471 15.504 28.602 14.5114 29.1118 13.6328C29.6325 12.7541 30.3322 12.0708 31.2108 11.5826C32.1003 11.0836 33.0712 10.8341 34.1234 10.8341C35.3274 10.8341 36.3959 11.1324 37.3288 11.7291C38.2725 12.3148 38.9559 13.1501 39.379 14.2348H37.1498C36.8569 13.6382 36.4501 13.1935 35.9295 12.9006C35.4088 12.6077 34.8067 12.4613 34.1234 12.4613C33.3749 12.4613 32.7078 12.6294 32.122 12.9657C31.5362 13.3019 31.0752 13.7847 30.739 14.4138C30.4135 15.043 30.2508 15.7752 30.2508 16.6104C30.2508 17.4457 30.4135 18.1779 30.739 18.807C31.0752 19.4362 31.5362 19.9243 32.122 20.2714C32.7078 20.6077 33.3749 20.7758 34.1234 20.7758C34.8067 20.7758 35.4088 20.6294 35.9295 20.3365C36.4501 20.0436 36.8569 19.5989 37.1498 19.0023H39.379C38.9559 20.087 38.2725 20.9223 37.3288 21.508C36.3959 22.0938 35.3274 22.3867 34.1234 22.3867C33.0603 22.3867 32.0895 22.1426 31.2108 21.6545C30.3322 21.1555 29.6325 20.4667 29.1118 19.588C28.602 18.7094 28.3471 17.7169 28.3471 16.6104ZM45.439 22.4355C44.5929 22.4355 43.8281 22.2457 43.1447 21.866C42.4613 21.4755 41.9244 20.9331 41.5339 20.2389C41.1434 19.5338 40.9481 18.7202 40.9481 17.7982C40.9481 16.887 41.1488 16.0789 41.5501 15.3738C41.9515 14.6687 42.4993 14.1263 43.1935 13.7467C43.8878 13.367 44.6634 13.1772 45.5203 13.1772C46.3773 13.1772 47.1529 13.367 47.8471 13.7467C48.5413 14.1263 49.0891 14.6687 49.4905 15.3738C49.8918 16.0789 50.0925 16.887 50.0925 17.7982C50.0925 18.7094 49.8864 19.5175 49.4742 20.2226C49.062 20.9277 48.4979 21.4755 47.782 21.866C47.0769 22.2457 46.2959 22.4355 45.439 22.4355ZM45.439 20.8247C45.9162 20.8247 46.361 20.7108 46.7732 20.483C47.1962 20.2552 47.5379 19.9135 47.7983 19.4579C48.0586 19.0023 48.1888 18.4491 48.1888 17.7982C48.1888 17.1474 48.064 16.5996 47.8145 16.1548C47.5651 15.6992 47.2342 15.3575 46.822 15.1297C46.4098 14.9019 45.9651 14.788 45.4878 14.788C45.0105 14.788 44.5657 14.9019 44.1535 15.1297C43.7522 15.3575 43.4322 15.6992 43.1935 16.1548C42.9549 16.5996 42.8356 17.1474 42.8356 17.7982C42.8356 18.7636 43.0796 19.5121 43.5678 20.0436C44.0667 20.5643 44.6905 20.8247 45.439 20.8247ZM62.7791 13.1772C63.4842 13.1772 64.1133 13.3236 64.6665 13.6165C65.2306 13.9094 65.6699 14.3433 65.9845 14.9182C66.3099 15.4931 66.4726 16.1874 66.4726 17.0009V22.2891H64.634V17.2775C64.634 16.4748 64.4333 15.8619 64.032 15.4389C63.6306 15.005 63.0828 14.788 62.3886 14.788C61.6943 14.788 61.1411 15.005 60.7289 15.4389C60.3276 15.8619 60.1269 16.4748 60.1269 17.2775V22.2891H58.2882V17.2775C58.2882 16.4748 58.0876 15.8619 57.6862 15.4389C57.2848 15.005 56.737 14.788 56.0428 14.788C55.3486 14.788 54.7954 15.005 54.3831 15.4389C53.9818 15.8619 53.7811 16.4748 53.7811 17.2775V22.2891H51.9262V13.3236H53.7811V14.3487C54.0848 13.9799 54.4699 13.6925 54.9364 13.4863C55.4028 13.2802 55.9018 13.1772 56.4333 13.1772C57.1493 13.1772 57.7893 13.3291 58.3533 13.6328C58.9174 13.9365 59.3513 14.3758 59.655 14.9508C59.9262 14.4084 60.3493 13.9799 60.9242 13.6653C61.4991 13.3399 62.1174 13.1772 62.7791 13.1772ZM79.6859 13.1772C80.391 13.1772 81.0201 13.3236 81.5733 13.6165C82.1374 13.9094 82.5767 14.3433 82.8913 14.9182C83.2167 15.4931 83.3794 16.1874 83.3794 17.0009V22.2891H81.5408V17.2775C81.5408 16.4748 81.3401 15.8619 80.9387 15.4389C80.5374 15.005 79.9896 14.788 79.2954 14.788C78.6011 14.788 78.0479 15.005 77.6357 15.4389C77.2343 15.8619 77.0337 16.4748 77.0337 17.2775V22.2891H75.195V17.2775C75.195 16.4748 74.9943 15.8619 74.593 15.4389C74.1916 15.005 73.6438 14.788 72.9496 14.788C72.2554 14.788 71.7021 15.005 71.2899 15.4389C70.8886 15.8619 70.6879 16.4748 70.6879 17.2775V22.2891H68.833V13.3236H70.6879V14.3487C70.9916 13.9799 71.3767 13.6925 71.8432 13.4863C72.3096 13.2802 72.8086 13.1772 73.3401 13.1772C74.056 13.1772 74.696 13.3291 75.2601 13.6328C75.8242 13.9365 76.2581 14.3758 76.5618 14.9508C76.833 14.4084 77.256 13.9799 77.831 13.6653C78.4059 13.3399 79.0242 13.1772 79.6859 13.1772ZM93.8591 13.3236V22.2891H92.0042V21.2314C91.7113 21.6002 91.3262 21.8931 90.8489 22.1101C90.3825 22.3162 89.8835 22.4192 89.352 22.4192C88.6469 22.4192 88.0123 22.2728 87.4482 21.9799C86.895 21.687 86.4557 21.2531 86.1303 20.6782C85.8157 20.1033 85.6584 19.4091 85.6584 18.5955V13.3236H87.4971V18.3189C87.4971 19.1216 87.6977 19.7399 88.0991 20.1738C88.5004 20.5969 89.0482 20.8084 89.7425 20.8084C90.4367 20.8084 90.9845 20.5969 91.3859 20.1738C91.7981 19.7399 92.0042 19.1216 92.0042 18.3189V13.3236H93.8591ZM100.83 13.1772C101.535 13.1772 102.164 13.3236 102.717 13.6165C103.281 13.9094 103.721 14.3433 104.035 14.9182C104.35 15.4931 104.507 16.1874 104.507 17.0009V22.2891H102.669V17.2775C102.669 16.4748 102.468 15.8619 102.067 15.4389C101.665 15.005 101.117 14.788 100.423 14.788C99.7289 14.788 99.1757 15.005 98.7635 15.4389C98.3621 15.8619 98.1614 16.4748 98.1614 17.2775V22.2891H96.3065V13.3236H98.1614V14.3487C98.4652 13.9799 98.8502 13.6925 99.3167 13.4863C99.794 13.2802 100.298 13.1772 100.83 13.1772ZM107.817 12.1358C107.481 12.1358 107.199 12.0219 106.971 11.7941C106.743 11.5663 106.629 11.2843 106.629 10.948C106.629 10.6118 106.743 10.3297 106.971 10.1019C107.199 9.87414 107.481 9.76025 107.817 9.76025C108.142 9.76025 108.419 9.87414 108.647 10.1019C108.875 10.3297 108.988 10.6118 108.988 10.948C108.988 11.2843 108.875 11.5663 108.647 11.7941C108.419 12.0219 108.142 12.1358 107.817 12.1358ZM108.728 13.3236V22.2891H106.873V13.3236H108.728ZM113.328 14.8369V19.7996C113.328 20.1358 113.404 20.3799 113.555 20.5318C113.718 20.6728 113.989 20.7433 114.369 20.7433H115.508V22.2891H114.044C113.208 22.2891 112.568 22.0938 112.124 21.7033C111.679 21.3128 111.456 20.6782 111.456 19.7996V14.8369H110.399V13.3236H111.456V11.0945H113.328V13.3236H115.508V14.8369H113.328ZM125.288 13.3236L119.788 26.5033H117.868L119.691 22.1426L116.16 13.3236H118.226L120.748 20.1575L123.368 13.3236H125.288Z" fill="white"/>
</svg>
