<svg width="40" height="40" viewBox="0 0 40 40" fill="none" xmlns="http://www.w3.org/2000/svg">
  <g>
    <path d="M36.818 20.364C36.818 19.091 36.682 18.182 36.491 17.273H20.364V22.727H29.818C29.636 23.818 28.909 25.364 27.273 26.545L27.25 26.682L31.091 29.545L31.364 29.568C34.091 27.091 36.818 23.273 36.818 20.364Z" fill="#4285F4"/>
    <path d="M20.364 36.364C23.636 36.364 26.364 35.273 28.545 33.364L24.273 30.182C23.182 30.909 21.818 31.364 20.364 31.364C17.182 31.364 14.545 29.091 13.636 26.182L13.5 26.193L9.545 29.182L9.5 29.318C11.682 33.182 15.818 36.364 20.364 36.364Z" fill="#34A853"/>
    <path d="M13.636 26.182C13.409 25.591 13.273 24.955 13.273 24.273C13.273 23.591 13.409 22.955 13.636 22.364L13.631 22.217L9.636 19.182L9.5 19.227C8.682 20.773 8.182 22.545 8.182 24.273C8.182 26 8.682 27.773 9.5 29.318L13.636 26.182Z" fill="#FBBC05"/>
    <path d="M20.364 13.182C22.273 13.182 23.682 13.818 24.545 14.636L28.636 10.545C26.364 8.545 23.636 7.273 20.364 7.273C15.818 7.273 11.682 10.455 9.5 14.318L13.636 17.455C14.545 14.545 17.182 13.182 20.364 13.182Z" fill="#EA4335"/>
  </g>
</svg> 